<?xml version="1.0" encoding="utf-8"?>
<!-- Generator: Adobe Illustrator 27.5.0, SVG Export Plug-In . SVG Version: 6.00 Build 0)  -->
<svg version="1.1" id="Layer_3" xmlns="http://www.w3.org/2000/svg" xmlns:xlink="http://www.w3.org/1999/xlink" x="0px" y="0px"
	 viewBox="0 0 1774.1 278" style="enable-background:new 0 0 1774.1 278;" xml:space="preserve">
<style type="text/css">
	.st0{fill:#C7DEDC;}
	.st1{fill:#FFFFFF;}
	.st2{fill:#6B9D97;}
	.st3{fill:#FCFCFC;}
</style>
<path class="st0" d="M141.7,108.9c-4.3-13.6-15-15.5-18.1-15.7V53.3c0-5.9-4.8-10.6-10.6-10.6H86.6c-5.6,0-10.2,4.6-10.2,10.2v5.7
	H56.7V23.3h67.7c5.5,0,9.8,1.5,12.8,4.6c4.8,4.9,4.6,12.1,4.6,12.2L141.7,108.9L141.7,108.9z"/>
<path class="st1" d="M124.4,24.2c5.2,0,9.3,1.5,12.1,4.4c4.5,4.6,4.4,11.5,4.4,11.6v64.3c-4.7-9.6-12.9-11.7-16.4-12.1V53.3
	c0-6.3-5.2-11.5-11.5-11.5H86.7c-6.1,0-11.1,5-11.1,11.1v4.9H57.6V24.1L124.4,24.2 M124.4,22.5H55.9v36.9h21.4v-6.5
	c0-5.2,4.2-9.4,9.4-9.4H113c5.4,0,9.8,4.4,9.8,9.8v40.6l0,0c0.5,0,18,0.2,19.8,24.1V40.1C142.6,40.1,143.1,22.5,124.4,22.5
	L124.4,22.5L124.4,22.5z"/>
<path class="st0" d="M123.6,170.7v-15.4c0.6,0.1,1.3,0.2,2.2,0.2c4.1,0,11.2-1.8,15.9-12.9v28.2H123.6L123.6,170.7z"/>
<path class="st1" d="M140.9,146.1v23.7h-16.4v-13.6c0.4,0,0.9,0.1,1.4,0.1C129.7,156.3,136.1,154.7,140.9,146.1 M142.6,137.7
	c-4.4,14.7-12.4,16.9-16.8,16.9c-1.8,0-3.1-0.4-3.1-0.4v17.3h19.8L142.6,137.7L142.6,137.7L142.6,137.7z"/>
<path class="st0" d="M56.7,235.4V87.6h19.7v14.8l17.5,17.9c5.5,5.7,8.6,13.2,8.6,21.1v15.3l-26.1-27.3v76.4
	c0,5.6,4.6,10.2,10.2,10.2H113c5.9,0,10.6-4.8,10.6-10.6v-6h18.1v19.1c0,0,0.1,7.3-4.6,12.2c-3,3.1-7.3,4.6-12.8,4.6L56.7,235.4
	L56.7,235.4z"/>
<path class="st1" d="M75.6,88.4v14.3l0.5,0.5l17.3,17.6c5.4,5.5,8.4,12.8,8.4,20.6v13.2l-23.2-24.3l-2.9-3v78.5
	c0,6.1,5,11.1,11.1,11.1H113c6.3,0,11.5-5.2,11.5-11.5v-5.1h16.4v18.3c0,0,0.1,6.9-4.4,11.6c-2.8,2.9-6.9,4.4-12.1,4.4H57.5V88.5
	L75.6,88.4 M77.3,86.8H55.8v149.5h68.5c18.7,0,18.2-17.7,18.2-17.7v-20h-19.8v6.8c0,5.4-4.4,9.8-9.8,9.8H86.6
	c-5.2,0-9.4-4.2-9.4-9.4v-74.4l26.1,27.3v-17.4c0-8.1-3.2-15.9-8.8-21.7l-17.3-17.6L77.3,86.8L77.3,86.8L77.3,86.8z"/>
<path class="st2" d="M18,194.4V62.8h101.5V83H45.1c-4.5,0-8.1,3.6-8.1,8.1v75.1c0,4.5,3.6,8.1,8.1,8.1h7.4v20.1L18,194.4L18,194.4z"
	/>
<path class="st1" d="M118.7,63.7v18.5H45.1c-4.9,0-8.9,4-8.9,8.9v75.1c0,4.9,4,8.9,8.9,8.9h6.6v18.5H18.8V63.7L118.7,63.7 M120.4,62
	H17.2v133.2h36.3v-21.8h-8.3c-4,0-7.2-3.3-7.2-7.2V91.1c0-4,3.3-7.2,7.2-7.2h75.2V62L120.4,62L120.4,62z"/>
<path class="st2" d="M80.5,195.1v-20.1H152c6.1,0,11.2-5,11.2-11.2V94.1c0-6.1-5-11.2-11.2-11.2h-5.9V62.8H172
	c5.2,0,9.5,4.3,9.5,9.5v113.3c0,5.2-4.3,9.5-9.5,9.5H80.5z"/>
<path class="st1" d="M172,63.7c4.8,0,8.7,3.9,8.7,8.7v113.3c0,4.8-3.9,8.7-8.7,8.7H81.3v-18.5H152c6.6,0,12-5.4,12-12V94.1
	c0-6.6-5.4-12-12-12H147V63.7H172 M172,62h-26.7v21.8h6.7c5.7,0,10.3,4.6,10.3,10.3v69.7c0,5.7-4.6,10.3-10.3,10.3H79.6V196H172
	c5.7,0,10.3-4.6,10.3-10.3V72.3C182.3,66.6,177.7,62,172,62L172,62z"/>
<path class="st3" d="M330.9,198.8H280c-1.9,0-3.5-0.5-4.7-1.6c-1.2-1.1-1.8-2.3-1.8-3.8V78.6c0-1.6,0.6-2.9,1.9-3.9
	c1.3-1,2.8-1.5,4.5-1.5h50.9c8.9,0,16,2.9,21.3,8.6c5.3,5.7,8,12.3,8,19.9v68.9c0,7.6-2.7,14.2-8,19.9
	C346.9,196,339.8,198.9,330.9,198.8L330.9,198.8z M332.3,169.4v-67c0-1.6-0.5-3.1-1.5-4.4s-2.5-2-4.4-2h-24.9v79.8h24.9
	c1.9,0,3.4-0.7,4.4-2C331.8,172.4,332.3,171,332.3,169.4z"/>
<path class="st3" d="M443.6,198.8h-36.2c-7.9,0-14.2-2.6-18.9-7.6c-4.7-5.1-7-10.9-7-17.6V98.2c0-6.6,2.3-12.5,7-17.5
	c4.7-5,11-7.5,18.9-7.5h36.2c7.8,0,14,2.5,18.8,7.5c4.7,5,7.1,10.8,7.1,17.5v75.4c0,6.6-2.4,12.5-7.1,17.6
	C457.6,196.3,451.3,198.8,443.6,198.8z M412.1,175.8H439c0.7,0,1.3-0.4,1.8-1.1c0.6-0.7,0.8-1.5,0.8-2.3V99.7c0-0.8-0.3-1.5-0.8-2.3
	c-0.6-0.7-1.2-1.1-1.8-1.1h-26.9c-0.8,0-1.5,0.4-2,1.1c-0.6,0.7-0.8,1.5-0.8,2.3v72.8c0,0.8,0.3,1.5,0.8,2.3
	C410.6,175.5,411.3,175.8,412.1,175.8z"/>
<path class="st3" d="M491.6,191.1V86.5c0-9.7,6.8-14.6,20.3-14.6c6.4,0,11.3,0.8,14.6,2.6c3.3,1.7,5.6,4.5,7,8.5l24.8,79.8l24-79.4
	c1.4-4.4,3.8-7.4,7.2-9c3.4-1.6,8.1-2.4,14.1-2.4c13.9,0,20.8,4.9,20.8,14.7V191c0,2.2-0.8,4.1-2.6,5.6c-1.7,1.5-3.7,2.2-5.9,2.2
	h-11c-2.5,0-4.5-0.8-6.1-2.4c-1.6-1.6-2.4-3.4-2.4-5.4v-73.9L574,190.3c-1.2,3.7-2.9,6.3-4.9,7.6c-2,1.3-5.7,2-11.2,2
	c-5.4,0-8.8-0.7-10.7-2c-2-1.3-3.6-4-4.8-7.8l-22.6-73.6V191c0,2.2-0.9,4.1-2.8,5.6c-1.8,1.5-3.9,2.2-6,2.2h-10.7
	c-2.5,0-4.6-0.8-6.3-2.4s-2.6-3.4-2.6-5.4L491.6,191.1z"/>
<path class="st3" d="M676.9,78.6v114.9c0,1.3-0.6,2.6-1.8,3.7c-1.2,1.1-2.7,1.7-4.4,1.7h-15.4c-1.7,0-3.2-0.5-4.4-1.5
	c-1.2-1-1.8-2.3-1.8-3.9V78.6c0-1.6,0.6-2.9,1.8-3.9c1.2-1,2.7-1.5,4.4-1.5h15.4c1.7,0,3.2,0.6,4.4,1.7
	C676.3,76,676.9,77.2,676.9,78.6z"/>
<path class="st3" d="M744,83l24.5,75.9V81c0-2,0.8-3.9,2.4-5.4c1.6-1.6,3.7-2.4,6.2-2.4h10.7c2.1,0,4.2,0.7,6,2.2
	c1.8,1.5,2.8,3.3,2.8,5.6v104.9c0,4.5-1.7,8-5.1,10.5c-3.4,2.5-8,3.7-13.7,3.7h-3.2c-10.7,0-17.7-3.7-20.8-11.2l-24.4-75.9v78.2
	c0,2.2-0.9,4.1-2.8,5.6c-1.8,1.5-3.9,2.2-6,2.2H710c-2.5,0-4.5-0.8-6.2-2.4c-1.6-1.6-2.4-3.4-2.4-5.4V84.8c0-8.6,6.1-12.9,18.5-12.9
	h4.2C734.8,72,741.5,75.7,744,83L744,83z"/>
<path class="st3" d="M849,78.6v114.9c0,1.3-0.6,2.6-1.8,3.7c-1.2,1.1-2.7,1.7-4.4,1.7h-15.4c-1.7,0-3.2-0.5-4.4-1.5
	c-1.2-1-1.8-2.3-1.8-3.9V78.6c0-1.6,0.6-2.9,1.8-3.9c1.2-1,2.7-1.5,4.4-1.5h15.4c1.7,0,3.2,0.6,4.4,1.7C848.4,76,849,77.2,849,78.6z
	"/>
<path class="st3" d="M953.4,192.4l1.2,1.8l7.3,13c2.5,4.6,1.5,6.9-3.1,6.9h-14c-4.2,0-6.9-1.4-8.3-4.2l-4.7-11.2h-32.1
	c-7.9,0-14.2-2.6-18.9-7.6c-4.7-5.1-7-10.9-7-17.6V98.2c0-6.6,2.3-12.5,7-17.5c4.7-5,11-7.5,18.9-7.5h36.2c7.8,0,14,2.5,18.8,7.5
	c4.7,5,7.1,10.8,7.1,17.5v75.4C961.8,181.2,959,187.5,953.4,192.4L953.4,192.4z M904.7,175.9h26.2c0.8,0,1.5-0.4,2.1-1.1
	c0.6-0.7,0.9-1.5,0.9-2.3V99.7c0-0.8-0.3-1.5-0.9-2.3c-0.6-0.7-1.3-1.1-2.1-1.1h-26.2c-0.8,0-1.5,0.4-2.2,1.1c-0.7,0.7-1,1.5-1,2.3
	v72.8c0,0.8,0.3,1.5,1,2.3C903.2,175.5,903.9,175.9,904.7,175.9z"/>
<path class="st3" d="M1012.3,78.6v93.9c0,0.8,0.3,1.5,0.8,2.3c0.5,0.7,1.1,1.1,1.8,1.1h27.6c0.7,0,1.2-0.4,1.7-1.1
	c0.4-0.7,0.7-1.5,0.7-2.3V78.6c0-1.6,0.6-2.9,1.9-3.9c1.3-1,2.8-1.5,4.5-1.5h15.2c1.8,0,3.3,0.6,4.6,1.7c1.2,1.1,1.8,2.4,1.8,3.7
	v91.8c0,7.6-2.7,14.2-8,19.9c-5.3,5.7-12.4,8.6-21.3,8.6h-29.9c-8.8,0-15.8-2.9-21.1-8.6c-5.3-5.7-8-12.3-8-19.9V78.6
	c0-1.6,0.6-2.9,1.8-3.9c1.2-1,2.7-1.5,4.4-1.5h15.2c1.8,0,3.3,0.5,4.5,1.6C1011.7,75.9,1012.3,77.1,1012.3,78.6L1012.3,78.6z"/>
<path class="st3" d="M1167.6,96.2h-45.7c-0.6,0-0.8,0.6-0.8,1.7v25h36.2c1.8,0,3.3,0.5,4.4,1.6c1.1,1.1,1.7,2.3,1.7,3.8v11.2
	c0,1.7-0.6,3.1-1.8,4.1c-1.2,1-2.6,1.5-4.3,1.5H1121v29.3c0,1,0.3,1.5,0.8,1.5h45.7c1.9,0,3.5,0.5,4.7,1.6c1.2,1.1,1.8,2.3,1.8,3.6
	v12.3c0,1.6-0.6,2.9-1.9,3.9c-1.3,1-2.8,1.5-4.5,1.5h-63.8c-2.9,0-5.4-0.9-7.5-2.8c-2.1-1.8-3.1-4.2-3.1-7V82.9c0-2.6,1-4.9,2.9-6.8
	c1.9-2,4.5-3,7.8-3h63.8c1.8,0,3.3,0.6,4.6,1.7c1.2,1.1,1.8,2.4,1.8,3.9v12c0,1.6-0.7,2.9-2,3.9
	C1170.6,95.6,1169.1,96.1,1167.6,96.2L1167.6,96.2z"/>
<path class="st3" d="M1320.5,96.2h-45.7c-0.6,0-0.8,0.6-0.8,1.7v25h36.2c1.8,0,3.3,0.5,4.4,1.6c1.1,1.1,1.7,2.3,1.7,3.8v11.2
	c0,1.7-0.6,3.1-1.8,4.1c-1.2,1-2.6,1.5-4.3,1.5h-36.2v29.3c0,1,0.3,1.5,0.8,1.5h45.7c1.9,0,3.5,0.5,4.7,1.6c1.2,1.1,1.8,2.3,1.8,3.6
	v12.3c0,1.6-0.6,2.9-1.9,3.9c-1.3,1-2.8,1.5-4.5,1.5h-63.8c-2.9,0-5.4-0.9-7.5-2.8c-2.1-1.8-3.1-4.2-3.1-7V82.9c0-2.6,1-4.9,2.9-6.8
	c1.9-2,4.5-3,7.8-3h63.8c1.8,0,3.3,0.6,4.6,1.7c1.2,1.1,1.8,2.4,1.8,3.9v12c0,1.6-0.7,2.9-2,3.9C1323.5,95.6,1322,96.1,1320.5,96.2
	L1320.5,96.2z"/>
<path class="st3" d="M1404.4,198.8h-54.3c-1.9,0-3.5-0.5-4.7-1.6c-1.2-1.1-1.8-2.3-1.8-3.8V78.6c0-1.6,0.6-2.9,1.9-3.9
	s2.8-1.5,4.5-1.5h51.9c7.8,0,14,2.5,18.6,7.4c4.6,5,6.9,10.7,6.9,17.2v17.8c0,11-4.6,17.9-13.7,20.5c5,0.9,8.9,3.3,11.7,7.2
	c2.8,3.9,4.2,8.4,4.2,13.5v17.6c0,6.5-2.3,12.2-6.8,17.2C1418.4,196.4,1412.2,198.8,1404.4,198.8L1404.4,198.8z M1371.6,125.8h22
	c1.8,0,3.3-0.7,4.3-2.1c1.1-1.4,1.6-3.1,1.6-5v-15.6c0-1.7-0.5-3.3-1.6-4.7c-1.1-1.5-2.4-2.2-4.1-2.2h-22.1L1371.6,125.8
	L1371.6,125.8z M1395.8,147.6h-24.2v28.3h25.2c3.5,0,5.2-2,5.2-6.1v-15.6C1402,149.7,1399.9,147.5,1395.8,147.6L1395.8,147.6z"/>
<path class="st3" d="M1449.9,193.4l-0.2-109.1c0-2.9,1.1-5.5,3.3-7.8c2.2-2.2,5.1-3.4,8.7-3.4h44c8.9,0,16,2.8,21.2,8.5
	c5.2,5.6,7.9,12.3,7.9,20v22c-0.2,6.2-2.1,11.7-5.6,16.5c-3.5,4.8-8.2,7.5-14,8l3.4,4.7l20.6,38.6c0,0,0.1,0.5,0.4,1.1
	c0.3,0.6,0.4,1.2,0.4,1.6c0,1.5-0.6,2.6-1.7,3.5c-1.1,0.8-2.3,1.3-3.6,1.3h-17.1c-2.8,0-4.7-1.1-5.7-3.4l-20.5-39.6
	c-0.7-1.1-1.2-1.9-1.5-2.3c-0.3-0.4-0.8-0.8-1.4-1.1c-0.6-0.3-1.4-0.5-2.4-0.5h-8.5v41.4c0,1.6-0.7,2.9-2,3.9
	c-1.3,1-2.8,1.5-4.4,1.5h-15.1c-1.7,0-3.2-0.6-4.4-1.7C1450.6,196,1450,194.7,1449.9,193.4L1449.9,193.4z M1501.7,96.2h-22.5
	c-1,0-1.5,0.6-1.5,1.7v29.9h24.9c3.1,0,4.6-1.8,4.6-5.4v-20C1507.1,98.3,1505.3,96.2,1501.7,96.2L1501.7,96.2z"/>
<path class="st3" d="M1615.9,198.8h-36.2c-7.9,0-14.2-2.6-18.9-7.6c-4.7-5.1-7-10.9-7-17.6V98.2c0-6.6,2.3-12.5,7-17.5
	c4.7-5,11-7.5,18.9-7.5h36.2c7.8,0,14,2.5,18.8,7.5c4.7,5,7.1,10.8,7.1,17.5v75.4c0,6.6-2.4,12.5-7.1,17.6
	C1629.9,196.3,1623.6,198.8,1615.9,198.8z M1584.4,175.8h26.9c0.7,0,1.3-0.4,1.8-1.1c0.6-0.7,0.8-1.5,0.8-2.3V99.7
	c0-0.8-0.3-1.5-0.8-2.3c-0.6-0.7-1.2-1.1-1.8-1.1h-26.9c-0.8,0-1.5,0.4-2,1.1c-0.6,0.7-0.8,1.5-0.8,2.3v72.8c0,0.8,0.3,1.5,0.8,2.3
	C1582.9,175.5,1583.6,175.8,1584.4,175.8z"/>
<path class="st3" d="M1706.5,83l24.5,75.9V81c0-2,0.8-3.9,2.4-5.4c1.6-1.6,3.7-2.4,6.2-2.4h10.7c2.1,0,4.2,0.7,6,2.2
	c1.8,1.5,2.8,3.3,2.8,5.6v104.9c0,4.5-1.7,8-5.1,10.5c-3.4,2.5-8,3.7-13.7,3.7h-3.2c-10.7,0-17.7-3.7-20.8-11.2l-24.4-75.9v78.2
	c0,2.2-0.9,4.1-2.8,5.6c-1.8,1.5-3.9,2.2-6,2.2h-10.7c-2.5,0-4.5-0.8-6.2-2.4c-1.6-1.6-2.4-3.4-2.4-5.4V84.8
	c0-8.6,6.1-12.9,18.5-12.9h4.2C1697.3,72,1704,75.7,1706.5,83L1706.5,83z"/>
</svg>
