<?xml version="1.0" encoding="utf-8"?>
<!-- Generator: Adobe Illustrator 27.5.0, SVG Export Plug-In . SVG Version: 6.00 Build 0)  -->
<svg version="1.1" id="Layer_4" xmlns="http://www.w3.org/2000/svg" xmlns:xlink="http://www.w3.org/1999/xlink" x="0px" y="0px"
	 viewBox="0 0 896.8 527.5" style="enable-background:new 0 0 896.8 527.5;" xml:space="preserve">
<style type="text/css">
	.st0{fill:#C7DEDC;}
	.st1{fill:#F2F2F2;}
	.st2{fill:#6B9D97;}
	.st3{fill:#FFFFFF;}
</style>
<path class="st0" d="M532.2,164.9c-8.2-22.8-26.5-26.4-32.5-27V65.3c0-11-8.9-19.9-19.9-19.9h-48.2c-10.5,0-19.1,8.6-19.1,19.1v10.1
	h-35.4V10.8h123.6c9.9,0,17.7,2.8,23.1,8.4c8.6,8.9,8.3,21.9,8.3,22L532.2,164.9L532.2,164.9z"/>
<path class="st1" d="M500.7,12.7c9.4,0,16.7,2.6,21.7,7.8c8,8.3,7.8,20.6,7.8,20.7v0.1v0.1v114.9c-8.6-15.1-22.1-18.9-28.7-19.9
	V65.3c0-12-9.8-21.8-21.8-21.8h-48.2c-11.6,0-21,9.4-21,21v8.2H379V12.7L500.7,12.7 M500.7,8.9H375.2v67.7h39.2v-12
	c0-9.5,7.7-17.2,17.2-17.2h48.2c9.9,0,18,8,18,18v74.4c0,0,0,0,0,0c1,0,32.9,0.3,36.3,44.1V41.3C534.1,41.3,535.1,8.9,500.7,8.9
	L500.7,8.9L500.7,8.9z"/>
<path class="st0" d="M499.7,279.9v-27.4c1,0.2,2.2,0.3,3.7,0.3c7.4,0,20-3.2,28.8-22.3v49.5H499.7z"/>
<path class="st1" d="M530.3,238v40h-28.7v-23.4c0.6,0,1.1,0.1,1.8,0.1C510.2,254.6,521.4,252.1,530.3,238 M534,219.8
	c-8.1,27-22.7,31-30.7,31c-3.4,0-5.6-0.7-5.6-0.7v31.7h36.3L534,219.8L534,219.8L534,219.8z"/>
<path class="st0" d="M377.2,398.4V128.5h35.4v26.9l32.2,32.8c10.1,10.3,15.6,24,15.6,38.5v27.1l-47.8-50v140.9
	c0,10.5,8.6,19.1,19.1,19.1h48.2c11,0,19.9-8.9,19.9-19.9v-10.6h32.5v34.7c0,0.2,0.3,13.2-8.4,22.1c-5.4,5.5-13.2,8.4-23.1,8.4
	L377.2,398.4L377.2,398.4z"/>
<path class="st1" d="M410.7,130.4v25.7l1.1,1.1l31.6,32.3c9.7,10,15.1,23.2,15.1,37.1V249l-41.2-43.1l-6.5-6.8v145.6
	c0,11.6,9.4,21,21,21h48.2c12,0,21.8-9.8,21.8-21.8v-8.7h28.7V368v0c0,0.1,0.2,12.4-7.8,20.7c-5,5.1-12.3,7.8-21.7,7.8H379.1V130.4
	L410.7,130.4 M414.5,126.6h-39.2v273.7h125.5c34.3,0,33.3-32.3,33.3-32.3v-36.6h-36.3v12.5c0,9.9-8,18-18,18h-48.2
	c-9.5,0-17.2-7.7-17.2-17.2V208.5l47.8,50v-31.8c0-14.9-5.8-29.1-16.2-39.8l-31.6-32.3L414.5,126.6L414.5,126.6L414.5,126.6z"/>
<path class="st2" d="M306.3,323.3V83.2h185.2v36.1H355.7c-8.4,0-15.2,6.8-15.2,15.2V272c0,8.4,6.8,15.2,15.2,15.2H369v36.1H306.3
	L306.3,323.3z"/>
<path class="st1" d="M489.6,85.1v32.3h-134c-9.4,0-17.1,7.7-17.1,17.1V272c0,9.4,7.7,17.1,17.1,17.1H367v32.3h-58.8V85.1L489.6,85.1
	 M493.4,81.3h-189v244h66.4v-39.9h-15.2c-7.3,0-13.3-5.9-13.3-13.3V134.5c0-7.3,5.9-13.3,13.3-13.3h137.8L493.4,81.3L493.4,81.3
	L493.4,81.3z"/>
<path class="st2" d="M420.7,324.6v-36.1h130.6c11.5,0,20.8-9.3,20.8-20.8V140.1c0-11.5-9.3-20.8-20.8-20.8h-10.4V83.2h47
	c9.4,0,17,7.6,17,17v207.5c0,9.4-7.6,17-17,17L420.7,324.6L420.7,324.6z"/>
<path class="st1" d="M587.9,85.1c8.3,0,15.1,6.8,15.1,15.1v207.5c0,8.3-6.8,15.1-15.1,15.1H422.6v-32.3h128.7
	c12.5,0,22.7-10.2,22.7-22.7V140.1c0-12.5-10.2-22.7-22.7-22.7h-8.5V85.1L587.9,85.1 M587.9,81.3H539v39.9h12.3
	c10.4,0,18.9,8.5,18.9,18.9v127.6c0,10.4-8.5,18.9-18.9,18.9H418.8v39.9h169.1c10.4,0,18.9-8.5,18.9-18.9V100.2
	C606.8,89.7,598.4,81.3,587.9,81.3L587.9,81.3L587.9,81.3z"/>
<path class="st3" d="M58.2,511.5H29.4c-1.1,0-2-0.3-2.6-0.9c-0.7-0.6-1-1.3-1-2.1v-65c0-0.9,0.4-1.6,1.1-2.2
	c0.7-0.6,1.6-0.9,2.5-0.9h28.8c5,0,9.1,1.6,12.1,4.8c3,3.2,4.5,7,4.5,11.2v39c0,4.3-1.5,8-4.5,11.2
	C67.2,509.9,63.2,511.5,58.2,511.5L58.2,511.5z M58.9,494.9V457c0-0.9-0.3-1.7-0.9-2.5c-0.6-0.8-1.4-1.1-2.5-1.1H41.5v45.2h14.1
	c1.1,0,1.9-0.4,2.5-1.2S58.9,495.8,58.9,494.9z"/>
<path class="st3" d="M121.9,511.5h-20.5c-4.5,0-8-1.4-10.7-4.3c-2.6-2.9-4-6.2-4-9.9v-42.7c0-3.8,1.3-7.1,4-9.9
	c2.6-2.8,6.2-4.3,10.7-4.3h20.5c4.4,0,7.9,1.4,10.6,4.3c2.7,2.8,4,6.1,4,9.9v42.7c0,3.8-1.3,7.1-4,9.9
	C129.9,510.1,126.3,511.5,121.9,511.5z M104.1,498.5h15.2c0.4,0,0.7-0.2,1-0.6c0.3-0.4,0.5-0.9,0.5-1.3v-41.2c0-0.4-0.2-0.9-0.5-1.3
	c-0.3-0.4-0.7-0.6-1-0.6h-15.2c-0.5,0-0.8,0.2-1.2,0.6c-0.3,0.4-0.5,0.9-0.5,1.3v41.2c0,0.5,0.2,0.9,0.5,1.3
	C103.3,498.3,103.7,498.5,104.1,498.5z"/>
<path class="st3" d="M149.1,507.1V448c0-5.5,3.8-8.2,11.5-8.2c3.6,0,6.4,0.5,8.2,1.4c1.9,0.9,3.2,2.5,4,4.8l14,45.2l13.6-44.9
	c0.8-2.5,2.2-4.2,4.1-5.1s4.6-1.3,8-1.3c7.8,0,11.8,2.8,11.8,8.3v59c0,1.3-0.5,2.3-1.4,3.2c-0.9,0.8-2.1,1.2-3.3,1.2h-6.2
	c-1.4,0-2.5-0.4-3.5-1.3c-0.9-0.9-1.3-1.9-1.3-3.1v-41.8l-12.7,41.4c-0.7,2.1-1.6,3.5-2.8,4.3s-3.2,1.2-6.3,1.2
	c-3.1,0-5-0.4-6.1-1.2c-1.1-0.8-2-2.2-2.7-4.4L165,465v42.1c0,1.3-0.5,2.3-1.6,3.2c-1,0.8-2.2,1.3-3.4,1.3h-6
	c-1.4,0-2.6-0.4-3.5-1.3C149.5,509.2,149,508.2,149.1,507.1L149.1,507.1z"/>
<path class="st3" d="M253.9,443.5v65c0,0.8-0.4,1.5-1,2.1c-0.7,0.6-1.5,0.9-2.5,0.9h-8.7c-0.9,0-1.8-0.3-2.5-0.9
	c-0.7-0.6-1-1.3-1-2.2v-65c0-0.9,0.3-1.6,1-2.2c0.7-0.6,1.5-0.9,2.5-0.9h8.7c0.9,0,1.8,0.3,2.5,0.9
	C253.5,442,253.9,442.7,253.9,443.5z"/>
<path class="st3" d="M291.9,446l13.9,42.9v-44.1c0-1.2,0.5-2.2,1.4-3.1s2.1-1.3,3.5-1.3h6c1.2,0,2.4,0.4,3.4,1.3s1.6,1.9,1.6,3.2
	v59.3c0,2.5-0.9,4.5-2.9,5.9c-1.9,1.4-4.5,2.1-7.7,2.1h-1.8c-6.1,0-10-2.1-11.8-6.3l-13.8-43v44.2c0,1.3-0.5,2.3-1.6,3.2
	c-1,0.8-2.2,1.3-3.4,1.3h-6c-1.4,0-2.6-0.4-3.5-1.3c-0.9-0.9-1.4-1.9-1.4-3.1V447c0-4.8,3.5-7.3,10.4-7.3h2.4
	C286.6,439.8,290.4,441.8,291.9,446L291.9,446z"/>
<path class="st3" d="M351.3,443.5v65c0,0.8-0.4,1.5-1,2.1c-0.7,0.6-1.5,0.9-2.5,0.9H339c-0.9,0-1.8-0.3-2.5-0.9
	c-0.7-0.6-1-1.3-1-2.2v-65c0-0.9,0.3-1.6,1-2.2c0.7-0.6,1.5-0.9,2.5-0.9h8.7c0.9,0,1.8,0.3,2.5,0.9
	C350.9,442,351.3,442.7,351.3,443.5z"/>
<path class="st3" d="M410.3,507.9l0.7,1l4.1,7.4c1.4,2.6,0.8,3.9-1.7,3.9h-7.9c-2.4,0-3.9-0.8-4.7-2.4l-2.7-6.3h-18.2
	c-4.5,0-8-1.4-10.7-4.3c-2.7-2.9-4-6.2-4-9.9v-42.7c0-3.8,1.3-7.1,4-9.9c2.6-2.8,6.2-4.3,10.7-4.3h20.5c4.4,0,7.9,1.4,10.6,4.3
	c2.7,2.8,4,6.1,4,9.9v42.7C415,501.5,413.5,505.1,410.3,507.9L410.3,507.9z M382.8,498.5h14.8c0.4,0,0.9-0.2,1.2-0.6
	c0.3-0.4,0.5-0.9,0.5-1.3v-41.2c0-0.4-0.2-0.9-0.5-1.3s-0.8-0.6-1.2-0.6h-14.8c-0.5,0-0.9,0.2-1.3,0.6c-0.4,0.4-0.6,0.9-0.6,1.3
	v41.2c0,0.5,0.2,0.9,0.6,1.3C381.9,498.3,382.3,498.5,382.8,498.5z"/>
<path class="st3" d="M443.6,443.5v53.1c0,0.5,0.2,0.9,0.4,1.3c0.3,0.4,0.6,0.6,1,0.6h15.6c0.4,0,0.7-0.2,0.9-0.6
	c0.2-0.4,0.4-0.9,0.4-1.3v-53.1c0-0.9,0.4-1.6,1.1-2.2c0.7-0.6,1.6-0.9,2.5-0.9h8.6c1,0,1.9,0.3,2.6,0.9c0.7,0.6,1,1.3,1,2.1v52
	c0,4.3-1.5,8-4.5,11.2c-3,3.2-7,4.8-12.1,4.8h-16.9c-5,0-9-1.6-12-4.8c-3-3.2-4.5-7-4.5-11.2v-52c0-0.9,0.3-1.6,1-2.2
	s1.5-0.9,2.5-0.9h8.6c1,0,1.9,0.3,2.5,0.9C443.3,441.9,443.6,442.7,443.6,443.5L443.6,443.5z"/>
<path class="st3" d="M531.4,453.4h-25.8c-0.3,0-0.5,0.3-0.5,0.9v14.2h20.5c1,0,1.8,0.3,2.5,0.9s0.9,1.3,0.9,2.1v6.3
	c0,0.9-0.3,1.7-1,2.3c-0.7,0.6-1.5,0.9-2.4,0.9h-20.5v16.6c0,0.6,0.2,0.9,0.5,0.9h25.8c1.1,0,2,0.3,2.6,0.9c0.7,0.6,1,1.3,1,2.1v7
	c0,0.9-0.4,1.6-1.1,2.2c-0.7,0.6-1.6,0.9-2.5,0.9h-36.1c-1.7,0-3.1-0.5-4.3-1.6c-1.2-1-1.8-2.4-1.8-4v-60c0-1.5,0.6-2.8,1.6-3.9
	c1.1-1.1,2.5-1.7,4.4-1.7h36.1c1,0,1.9,0.3,2.6,0.9c0.7,0.6,1,1.4,1,2.2v6.8c0,0.9-0.4,1.6-1.2,2.2
	C533.2,453.1,532.3,453.4,531.4,453.4L531.4,453.4z"/>
<path class="st3" d="M617.9,453.4h-25.8c-0.3,0-0.5,0.3-0.5,0.9v14.2h20.5c1,0,1.8,0.3,2.5,0.9c0.6,0.6,0.9,1.3,0.9,2.1v6.3
	c0,0.9-0.3,1.7-1,2.3c-0.7,0.6-1.5,0.9-2.4,0.9h-20.5v16.6c0,0.6,0.2,0.9,0.5,0.9h25.8c1.1,0,2,0.3,2.6,0.9c0.7,0.6,1,1.3,1,2.1v7
	c0,0.9-0.4,1.6-1.1,2.2s-1.6,0.9-2.5,0.9h-36.1c-1.7,0-3.1-0.5-4.3-1.6s-1.8-2.4-1.8-4v-60c0-1.5,0.6-2.8,1.6-3.9
	c1.1-1.1,2.5-1.7,4.4-1.7h36.1c1,0,1.9,0.3,2.6,0.9c0.7,0.6,1,1.4,1,2.2v6.8c0,0.9-0.4,1.6-1.2,2.2
	C619.7,453.1,618.8,453.4,617.9,453.4L617.9,453.4z"/>
<path class="st3" d="M665.4,511.5h-30.7c-1.1,0-2-0.3-2.6-0.9c-0.7-0.6-1-1.3-1-2.1v-65c0-0.9,0.4-1.6,1.1-2.2
	c0.7-0.6,1.6-0.9,2.5-0.9h29.4c4.4,0,7.9,1.4,10.5,4.2c2.6,2.8,3.9,6.1,3.9,9.8v10c0,6.2-2.6,10.1-7.7,11.6c2.8,0.5,5,1.9,6.6,4.1
	c1.6,2.2,2.4,4.7,2.4,7.6v9.9c0,3.7-1.3,6.9-3.9,9.7C673.3,510.1,669.8,511.5,665.4,511.5L665.4,511.5z M646.9,470.2h12.4
	c1,0,1.8-0.4,2.4-1.2c0.6-0.8,0.9-1.7,0.9-2.8v-8.8c0-0.9-0.3-1.8-0.9-2.7c-0.6-0.8-1.4-1.3-2.3-1.3h-12.5L646.9,470.2L646.9,470.2z
	 M660.5,482.5h-13.7v16h14.3c2,0,3-1.2,3-3.5v-8.8C664.1,483.8,662.9,482.5,660.5,482.5L660.5,482.5z"/>
<path class="st3" d="M691.2,508.4l-0.1-61.7c0-1.7,0.6-3.1,1.9-4.4c1.3-1.3,2.9-1.9,4.9-1.9h24.9c5,0,9,1.6,12,4.8
	c3,3.2,4.4,6.9,4.4,11.3v12.4c-0.1,3.5-1.2,6.6-3.2,9.3c-2,2.7-4.6,4.2-7.9,4.5l1.9,2.7l11.7,21.8c0,0,0.1,0.3,0.2,0.6
	c0.2,0.4,0.2,0.7,0.2,0.9c0,0.8-0.3,1.5-0.9,2c-0.6,0.5-1.3,0.7-2,0.7h-9.7c-1.6,0-2.7-0.6-3.2-1.9l-11.6-22.4
	c-0.4-0.6-0.7-1.1-0.9-1.3c-0.2-0.2-0.5-0.4-0.8-0.6c-0.4-0.2-0.8-0.3-1.4-0.3h-4.8v23.4c0,0.9-0.4,1.6-1.2,2.2
	c-0.8,0.6-1.6,0.9-2.5,0.9h-8.5c-0.9,0-1.8-0.3-2.5-0.9C691.6,509.9,691.2,509.2,691.2,508.4L691.2,508.4z M720.4,453.4h-12.7
	c-0.6,0-0.9,0.3-0.9,0.9v16.9h14.1c1.7,0,2.6-1,2.6-3.1V457C723.5,454.6,722.5,453.4,720.4,453.4L720.4,453.4z"/>
<path class="st3" d="M785,511.5h-20.5c-4.5,0-8-1.4-10.7-4.3c-2.7-2.9-4-6.2-4-9.9v-42.7c0-3.8,1.3-7.1,4-9.9
	c2.6-2.8,6.2-4.3,10.7-4.3H785c4.4,0,7.9,1.4,10.6,4.3c2.7,2.8,4,6.1,4,9.9v42.7c0,3.8-1.3,7.1-4,9.9
	C793,510.1,789.4,511.5,785,511.5z M767.2,498.5h15.2c0.4,0,0.7-0.2,1-0.6c0.3-0.4,0.5-0.9,0.5-1.3v-41.2c0-0.4-0.2-0.9-0.5-1.3
	c-0.3-0.4-0.7-0.6-1-0.6h-15.2c-0.5,0-0.8,0.2-1.2,0.6c-0.3,0.4-0.5,0.9-0.5,1.3v41.2c0,0.5,0.2,0.9,0.5,1.3
	C766.4,498.3,766.8,498.5,767.2,498.5z"/>
<path class="st3" d="M836.3,446l13.9,42.9v-44.1c0-1.2,0.5-2.2,1.4-3.1s2.1-1.3,3.5-1.3h6c1.2,0,2.4,0.4,3.4,1.3
	c1,0.8,1.6,1.9,1.6,3.2v59.3c0,2.5-0.9,4.5-2.9,5.9s-4.5,2.1-7.7,2.1h-1.8c-6.1,0-10-2.1-11.8-6.3l-13.8-43v44.2
	c0,1.3-0.5,2.3-1.6,3.2c-1,0.8-2.2,1.3-3.4,1.3h-6c-1.4,0-2.6-0.4-3.5-1.3c-0.9-0.9-1.4-1.9-1.4-3.1V447c0-4.8,3.5-7.3,10.4-7.3h2.4
	C831.1,439.8,834.9,441.8,836.3,446L836.3,446z"/>
</svg>
