<?xml version="1.0" encoding="utf-8"?>
<!-- Generator: Adobe Illustrator 27.5.0, SVG Export Plug-In . SVG Version: 6.00 Build 0)  -->
<svg version="1.1" id="Layer_3" xmlns="http://www.w3.org/2000/svg" xmlns:xlink="http://www.w3.org/1999/xlink" x="0px" y="0px"
	 viewBox="0 0 1370.7 278" style="enable-background:new 0 0 1370.7 278;" xml:space="preserve">
<style type="text/css">
	.st0{fill:#C7DEDC;}
	.st1{fill:#FFFFFF;}
	.st2{fill:#6B9D97;}
	.st3{fill:#FCFCFC;}
</style>
<path class="st0" d="M141.7,108.9c-4.3-13.6-15-15.5-18.1-15.7V53.3c0-5.9-4.8-10.6-10.6-10.6H86.6c-5.6,0-10.2,4.6-10.2,10.2v5.7
	H56.7V23.3h67.7c5.5,0,9.8,1.5,12.8,4.6c4.8,4.9,4.6,12.1,4.6,12.2L141.7,108.9L141.7,108.9z"/>
<path class="st1" d="M124.4,24.2c5.2,0,9.3,1.5,12.1,4.4c4.5,4.6,4.4,11.5,4.4,11.6v64.3c-4.7-9.6-12.9-11.7-16.4-12.1V53.3
	c0-6.3-5.2-11.5-11.5-11.5H86.7c-6.1,0-11.1,5-11.1,11.1v4.9h-18V24.1L124.4,24.2 M124.4,22.5H55.9v36.9h21.4v-6.5
	c0-5.2,4.2-9.4,9.4-9.4H113c5.4,0,9.8,4.4,9.8,9.8v40.6l0,0c0.5,0,18,0.2,19.8,24.1V40.1C142.6,40.1,143.1,22.5,124.4,22.5
	L124.4,22.5L124.4,22.5z"/>
<path class="st0" d="M123.6,170.7v-15.4c0.6,0.1,1.3,0.2,2.2,0.2c4.1,0,11.2-1.8,15.9-12.9v28.2h-18.1V170.7z"/>
<path class="st1" d="M140.9,146.1v23.7h-16.4v-13.6c0.4,0,0.9,0.1,1.4,0.1C129.7,156.3,136.1,154.7,140.9,146.1 M142.6,137.7
	c-4.4,14.7-12.4,16.9-16.8,16.9c-1.8,0-3.1-0.4-3.1-0.4v17.3h19.8L142.6,137.7L142.6,137.7L142.6,137.7z"/>
<path class="st0" d="M56.7,235.4V87.6h19.7v14.8l17.5,17.9c5.5,5.7,8.6,13.2,8.6,21.1v15.3l-26.1-27.3v76.4
	c0,5.6,4.6,10.2,10.2,10.2H113c5.9,0,10.6-4.8,10.6-10.6v-6h18.1v19.1c0,0,0.1,7.3-4.6,12.2c-3,3.1-7.3,4.6-12.8,4.6L56.7,235.4
	L56.7,235.4z"/>
<path class="st1" d="M75.6,88.4v14.3l0.5,0.5l17.3,17.6c5.4,5.5,8.4,12.8,8.4,20.6v13.2l-23.2-24.3l-2.9-3v78.5
	c0,6.1,5,11.1,11.1,11.1H113c6.3,0,11.5-5.2,11.5-11.5v-5.1h16.4v18.3c0,0,0.1,6.9-4.4,11.6c-2.8,2.9-6.9,4.4-12.1,4.4H57.5V88.5
	L75.6,88.4 M77.3,86.8H55.8v149.5h68.5c18.7,0,18.2-17.7,18.2-17.7v-20h-19.8v6.8c0,5.4-4.4,9.8-9.8,9.8H86.6
	c-5.2,0-9.4-4.2-9.4-9.4v-74.4l26.1,27.3v-17.4c0-8.1-3.2-15.9-8.8-21.7L77.2,102L77.3,86.8L77.3,86.8L77.3,86.8z"/>
<path class="st2" d="M18,194.4V62.8h101.5V83H45.1c-4.5,0-8.1,3.6-8.1,8.1v75.1c0,4.5,3.6,8.1,8.1,8.1h7.4v20.1L18,194.4L18,194.4z"
	/>
<path class="st1" d="M118.7,63.7v18.5H45.1c-4.9,0-8.9,4-8.9,8.9v75.1c0,4.9,4,8.9,8.9,8.9h6.6v18.5H18.8V63.7H118.7 M120.4,62H17.2
	v133.2h36.3v-21.8h-8.3c-4,0-7.2-3.3-7.2-7.2V91.1c0-4,3.3-7.2,7.2-7.2h75.2L120.4,62L120.4,62L120.4,62z"/>
<path class="st2" d="M80.5,195.1V175H152c6.1,0,11.2-5,11.2-11.2V94.1c0-6.1-5-11.2-11.2-11.2h-5.9V62.8H172c5.2,0,9.5,4.3,9.5,9.5
	v113.3c0,5.2-4.3,9.5-9.5,9.5H80.5z"/>
<path class="st1" d="M172,63.7c4.8,0,8.7,3.9,8.7,8.7v113.3c0,4.8-3.9,8.7-8.7,8.7H81.3v-18.5H152c6.6,0,12-5.4,12-12V94.1
	c0-6.6-5.4-12-12-12h-5V63.7H172 M172,62h-26.7v21.8h6.7c5.7,0,10.3,4.6,10.3,10.3v69.7c0,5.7-4.6,10.3-10.3,10.3H79.6V196H172
	c5.7,0,10.3-4.6,10.3-10.3V72.3C182.3,66.6,177.7,62,172,62L172,62z"/>
<path class="st3" d="M297.4,174.2h-36.6c-1.4,0-2.5-0.4-3.4-1.1c-0.9-0.8-1.3-1.7-1.3-2.7V87.8c0-1.1,0.4-2.1,1.4-2.8
	c0.9-0.7,2-1.1,3.2-1.1h36.6c6.4,0,11.5,2.1,15.3,6.2c3.8,4.1,5.7,8.8,5.7,14.3v49.5c0,5.5-1.9,10.2-5.7,14.3
	C308.9,172.2,303.8,174.3,297.4,174.2L297.4,174.2z M298.4,153.1v-48.2c0-1.1-0.4-2.2-1.1-3.2c-0.7-0.9-1.8-1.4-3.2-1.4h-17.9v57.4
	h17.9c1.4,0,2.4-0.5,3.2-1.4C298,155.2,298.4,154.2,298.4,153.1z"/>
<path class="st3" d="M378.4,174.2h-26c-5.7,0-10.2-1.9-13.6-5.5c-3.4-3.7-5-7.8-5-12.6v-54.2c0-4.7,1.7-9,5-12.6s7.9-5.4,13.6-5.4
	h26c5.6,0,10.1,1.8,13.5,5.4c3.4,3.6,5.1,7.8,5.1,12.6v54.2c0,4.7-1.7,9-5.1,12.6C388.5,172.4,383.9,174.2,378.4,174.2z
	 M355.8,157.7h19.3c0.5,0,0.9-0.3,1.3-0.8c0.4-0.5,0.6-1.1,0.6-1.7V103c0-0.6-0.2-1.1-0.6-1.7c-0.4-0.5-0.9-0.8-1.3-0.8h-19.3
	c-0.6,0-1.1,0.3-1.4,0.8c-0.4,0.5-0.6,1.1-0.6,1.7v52.3c0,0.6,0.2,1.1,0.6,1.7C354.7,157.5,355.2,157.7,355.8,157.7z"/>
<path class="st3" d="M412.9,168.7V93.5c0-7,4.9-10.5,14.6-10.5c4.6,0,8.1,0.6,10.5,1.9c2.4,1.2,4,3.2,5,6.1l17.8,57.4l17.2-57.1
	c1-3.2,2.7-5.3,5.2-6.5c2.4-1.1,5.8-1.7,10.1-1.7c10,0,14.9,3.5,14.9,10.6v75c0,1.6-0.6,2.9-1.9,4c-1.2,1.1-2.7,1.6-4.2,1.6h-7.9
	c-1.8,0-3.2-0.6-4.4-1.7c-1.1-1.1-1.7-2.4-1.7-3.9v-53.1l-16.1,52.6c-0.9,2.7-2.1,4.5-3.5,5.5c-1.4,0.9-4.1,1.4-8,1.4
	c-3.9,0-6.3-0.5-7.7-1.4c-1.4-0.9-2.6-2.9-3.4-5.6l-16.2-52.9v53.5c0,1.6-0.6,2.9-2,4c-1.3,1.1-2.8,1.6-4.3,1.6h-7.7
	c-1.8,0-3.3-0.6-4.5-1.7s-1.9-2.4-1.9-3.9L412.9,168.7z"/>
<path class="st3" d="M546.1,87.8v82.6c0,0.9-0.4,1.9-1.3,2.7c-0.9,0.8-1.9,1.2-3.2,1.2h-11.1c-1.2,0-2.3-0.4-3.2-1.1
	c-0.9-0.7-1.3-1.7-1.3-2.8V87.8c0-1.1,0.4-2.1,1.3-2.8c0.9-0.7,1.9-1.1,3.2-1.1h11.1c1.2,0,2.3,0.4,3.2,1.2
	C545.6,86,546.1,86.8,546.1,87.8z"/>
<path class="st3" d="M594.3,91l17.6,54.5v-56c0-1.4,0.6-2.8,1.7-3.9c1.1-1.1,2.7-1.7,4.5-1.7h7.7c1.5,0,3,0.5,4.3,1.6
	c1.3,1.1,2,2.4,2,4v75.4c0,3.2-1.2,5.7-3.7,7.5c-2.4,1.8-5.7,2.7-9.8,2.7h-2.3c-7.7,0-12.7-2.7-14.9-8l-17.5-54.5v56.2
	c0,1.6-0.6,2.9-2,4c-1.3,1.1-2.8,1.6-4.3,1.6h-7.6c-1.8,0-3.2-0.6-4.5-1.7c-1.1-1.1-1.7-2.4-1.7-3.9V92.3c0-6.2,4.4-9.3,13.3-9.3h3
	C587.7,83.1,592.5,85.7,594.3,91L594.3,91z"/>
<path class="st3" d="M669.8,87.8v82.6c0,0.9-0.4,1.9-1.3,2.7c-0.9,0.8-1.9,1.2-3.2,1.2h-11.1c-1.2,0-2.3-0.4-3.2-1.1
	c-0.9-0.7-1.3-1.7-1.3-2.8V87.8c0-1.1,0.4-2.1,1.3-2.8c0.9-0.7,1.9-1.1,3.2-1.1h11.1c1.2,0,2.3,0.4,3.2,1.2
	C669.3,86,669.8,86.8,669.8,87.8z"/>
<path class="st3" d="M744.8,169.6l0.9,1.3l5.2,9.3c1.8,3.3,1.1,5-2.2,5h-10.1c-3,0-5-1-6-3l-3.4-8h-23.1c-5.7,0-10.2-1.9-13.6-5.5
	c-3.4-3.7-5-7.8-5-12.6v-54.1c0-4.7,1.7-9,5-12.6s7.9-5.4,13.6-5.4h26c5.6,0,10.1,1.8,13.5,5.4c3.4,3.6,5.1,7.8,5.1,12.6v54.2
	C750.8,161.6,748.8,166.1,744.8,169.6L744.8,169.6z M709.8,157.8h18.8c0.6,0,1.1-0.3,1.5-0.8s0.6-1.1,0.6-1.7V103
	c0-0.6-0.2-1.1-0.6-1.7c-0.4-0.5-0.9-0.8-1.5-0.8h-18.8c-0.6,0-1.1,0.3-1.6,0.8c-0.5,0.5-0.7,1.1-0.7,1.7v52.3
	c0,0.6,0.2,1.1,0.7,1.7C708.7,157.5,709.2,157.8,709.8,157.8z"/>
<path class="st3" d="M787.1,87.8v67.5c0,0.6,0.2,1.1,0.6,1.7c0.4,0.5,0.8,0.8,1.3,0.8h19.8c0.5,0,0.9-0.3,1.2-0.8
	c0.3-0.5,0.5-1.1,0.5-1.7V87.8c0-1.1,0.4-2.1,1.4-2.8c0.9-0.7,2-1.1,3.2-1.1h10.9c1.3,0,2.4,0.4,3.3,1.2c0.9,0.8,1.3,1.7,1.3,2.7v66
	c0,5.5-1.9,10.2-5.7,14.3c-3.8,4.1-8.9,6.2-15.3,6.2h-21.5c-6.3,0-11.4-2.1-15.2-6.2c-3.8-4.1-5.7-8.8-5.7-14.3v-66
	c0-1.1,0.4-2.1,1.3-2.8c0.9-0.7,1.9-1.1,3.2-1.1h10.9c1.3,0,2.4,0.4,3.2,1.1C786.7,85.9,787.1,86.7,787.1,87.8L787.1,87.8z"/>
<path class="st3" d="M898.7,100.5h-32.8c-0.4,0-0.6,0.4-0.6,1.2v18h26c1.3,0,2.4,0.4,3.2,1.1c0.8,0.8,1.2,1.7,1.2,2.7v8
	c0,1.2-0.4,2.2-1.3,2.9c-0.9,0.7-1.9,1.1-3.1,1.1h-26.1v21.1c0,0.7,0.2,1.1,0.6,1.1h32.8c1.4,0,2.5,0.4,3.4,1.1
	c0.9,0.8,1.3,1.7,1.3,2.6v8.8c0,1.1-0.4,2.1-1.4,2.8c-0.9,0.7-2,1.1-3.2,1.1h-45.9c-2.1,0-3.9-0.6-5.4-2c-1.5-1.3-2.2-3-2.2-5V90.9
	c0-1.9,0.7-3.5,2.1-4.9c1.4-1.4,3.2-2.2,5.6-2.2h45.9c1.3,0,2.4,0.4,3.3,1.2c0.9,0.8,1.3,1.7,1.3,2.8v8.6c0,1.1-0.5,2.1-1.4,2.8
	C900.9,100,899.8,100.4,898.7,100.5L898.7,100.5z"/>
<path class="st3" d="M1008.6,100.5h-32.8c-0.4,0-0.6,0.4-0.6,1.2v18h26c1.3,0,2.4,0.4,3.2,1.1c0.8,0.8,1.2,1.7,1.2,2.7v8
	c0,1.2-0.4,2.2-1.3,2.9c-0.9,0.7-1.9,1.1-3.1,1.1h-26v21.1c0,0.7,0.2,1.1,0.6,1.1h32.8c1.4,0,2.5,0.4,3.4,1.1
	c0.9,0.8,1.3,1.7,1.3,2.6v8.8c0,1.1-0.4,2.1-1.4,2.8c-0.9,0.7-2,1.1-3.2,1.1h-45.9c-2.1,0-3.9-0.6-5.4-2c-1.5-1.3-2.2-3-2.2-5V90.9
	c0-1.9,0.7-3.5,2.1-4.9c1.4-1.4,3.2-2.2,5.6-2.2h45.9c1.3,0,2.4,0.4,3.3,1.2c0.9,0.8,1.3,1.7,1.3,2.8v8.6c0,1.1-0.5,2.1-1.4,2.8
	C1010.8,100,1009.7,100.4,1008.6,100.5L1008.6,100.5z"/>
<path class="st3" d="M1068.9,174.2h-39c-1.4,0-2.5-0.4-3.4-1.1c-0.9-0.8-1.3-1.7-1.3-2.7V87.8c0-1.1,0.4-2.1,1.4-2.8
	c0.9-0.7,2-1.1,3.2-1.1h37.3c5.6,0,10.1,1.8,13.4,5.3c3.3,3.6,5,7.7,5,12.4v12.8c0,7.9-3.3,12.9-9.8,14.7c3.6,0.6,6.4,2.4,8.4,5.2
	c2,2.8,3,6,3,9.7v12.6c0,4.7-1.7,8.8-4.9,12.4C1079,172.5,1074.5,174.2,1068.9,174.2L1068.9,174.2z M1045.4,121.7h15.8
	c1.3,0,2.4-0.5,3.1-1.5c0.8-1,1.1-2.2,1.1-3.6v-11.2c0-1.2-0.4-2.4-1.1-3.4c-0.8-1.1-1.7-1.6-2.9-1.6h-15.9L1045.4,121.7
	L1045.4,121.7z M1062.7,137.4h-17.4v20.3h18.1c2.5,0,3.7-1.4,3.7-4.4v-11.2C1067.2,138.9,1065.7,137.3,1062.7,137.4L1062.7,137.4z"
	/>
<path class="st3" d="M1101.6,170.3l-0.1-78.4c0-2.1,0.8-4,2.4-5.6c1.6-1.6,3.7-2.4,6.3-2.4h31.6c6.4,0,11.5,2,15.2,6.1
	c3.7,4,5.7,8.8,5.7,14.4v15.8c-0.1,4.5-1.5,8.4-4,11.9c-2.5,3.4-5.9,5.4-10.1,5.7l2.4,3.4l14.8,27.7c0,0,0.1,0.4,0.3,0.8
	c0.2,0.4,0.3,0.9,0.3,1.1c0,1.1-0.4,1.9-1.2,2.5c-0.8,0.6-1.7,0.9-2.6,0.9h-12.3c-2,0-3.4-0.8-4.1-2.4l-14.7-28.5
	c-0.5-0.8-0.9-1.4-1.1-1.7c-0.2-0.3-0.6-0.6-1-0.8c-0.4-0.2-1-0.4-1.7-0.4h-6.1v29.8c0,1.1-0.5,2.1-1.4,2.8c-0.9,0.7-2,1.1-3.2,1.1
	h-10.9c-1.2,0-2.3-0.4-3.2-1.2C1102.1,172.2,1101.7,171.3,1101.6,170.3L1101.6,170.3z M1138.9,100.5h-16.2c-0.7,0-1.1,0.4-1.1,1.2
	v21.5h17.9c2.2,0,3.3-1.3,3.3-3.9v-14.4C1142.7,102,1141.4,100.5,1138.9,100.5L1138.9,100.5z"/>
<path class="st3" d="M1220.9,174.2h-26c-5.7,0-10.2-1.9-13.6-5.5c-3.4-3.7-5-7.8-5-12.6v-54.2c0-4.7,1.7-9,5-12.6
	c3.4-3.6,7.9-5.4,13.6-5.4h26c5.6,0,10.1,1.8,13.5,5.4c3.4,3.6,5.1,7.8,5.1,12.6v54.2c0,4.7-1.7,9-5.1,12.6
	C1231,172.4,1226.5,174.2,1220.9,174.2z M1198.3,157.7h19.3c0.5,0,0.9-0.3,1.3-0.8c0.4-0.5,0.6-1.1,0.6-1.7V103
	c0-0.6-0.2-1.1-0.6-1.7c-0.4-0.5-0.9-0.8-1.3-0.8h-19.3c-0.6,0-1.1,0.3-1.4,0.8c-0.4,0.5-0.6,1.1-0.6,1.7v52.3
	c0,0.6,0.2,1.1,0.6,1.7C1197.2,157.5,1197.7,157.7,1198.3,157.7z"/>
<path class="st3" d="M1286.1,91l17.6,54.5v-56c0-1.4,0.6-2.8,1.7-3.9c1.1-1.1,2.7-1.7,4.5-1.7h7.7c1.5,0,3,0.5,4.3,1.6
	c1.3,1.1,2,2.4,2,4v75.4c0,3.2-1.2,5.7-3.7,7.5c-2.4,1.8-5.7,2.7-9.8,2.7h-2.3c-7.7,0-12.7-2.7-14.9-8l-17.5-54.5v56.2
	c0,1.6-0.6,2.9-2,4c-1.3,1.1-2.8,1.6-4.3,1.6h-7.7c-1.8,0-3.2-0.6-4.5-1.7c-1.1-1.1-1.7-2.4-1.7-3.9V92.3c0-6.2,4.4-9.3,13.3-9.3h3
	C1279.4,83.1,1284.3,85.7,1286.1,91L1286.1,91z"/>
</svg>
