<?xml version="1.0" encoding="UTF-8"?>
<svg width="440px" height="277px" viewBox="0 0 440 277" version="1.1" xmlns="http://www.w3.org/2000/svg" xmlns:xlink="http://www.w3.org/1999/xlink">
    <!-- Generator: Sketch 56.3 (81716) - https://sketch.com -->
    <title>uptv-logo-white</title>
    <desc>Created with Sketch.</desc>
    <defs>
        <polygon id="path-1" points="0.06 0.851 275.76 0.851 275.76 276.68 0.06 276.68"></polygon>
    </defs>
    <g id="Brand-Bar" stroke="none" stroke-width="1" fill="none" fill-rule="evenodd">
        <g id="Artboard">
            <g id="uptv-logo-white">
                <path d="M410.372,18.533 L407.913,83.246 L363.662,35.443 L333.769,46.425 L398.908,117.462 C404.408,123.612 410.82,126.845 417.192,126.845 C419.39,126.845 421.583,126.461 423.732,125.678 C432.057,122.649 436.966,114.44 437.199,103.172 L440,7.749 L410.372,18.533" id="Fill-1" fill="#FFFFFE"></path>
                <path d="M369.896,108.931 L368.283,110.042 C363.857,113.088 358.619,116.462 353.33,118.386 C346.372,120.918 337.183,121.465 332.898,109.695 L322.467,81.035 L341.596,73.996 L331.829,47.161 L312.689,54.172 L302.928,27.352 L271.836,38.668 L281.599,65.492 L264.393,71.754 L274.171,98.62 L291.377,92.358 L301.88,121.214 C306.495,133.897 314.232,143.306 324.254,148.425 C329.735,151.225 335.675,152.63 341.871,152.63 C347.065,152.63 352.44,151.642 357.876,149.664 C367.366,146.211 372.469,143.305 382.692,135.533 L383.9,134.614 L369.896,108.931" id="Fill-2" fill="#FFFFFE"></path>
                <g id="Group-6">
                    <mask id="mask-2" fill="white">
                        <use xlink:href="#path-1"></use>
                    </mask>
                    <g id="Clip-4"></g>
                    <path d="M209.624,94.492 L171.885,108.228 L184.7,143.438 L222.438,129.703 C231.774,126.303 234.744,115.09 231.63,106.53 C228.514,97.972 218.96,91.094 209.624,94.492" id="Fill-3" fill="#FFFFFE" mask="url(#mask-2)"></path>
                    <path d="M233.556,160.243 L195.817,173.98 L205.233,199.851 L174.691,210.968 L130.227,88.804 L198.507,63.952 C224.962,54.322 252.823,69.736 262.169,95.416 C271.516,121.092 260.012,150.614 233.556,160.243 Z M109.803,237.889 C76.539,249.999 41.161,230.27 29.407,197.977 L6.042,133.785 L36.582,122.669 L59.947,186.862 C65.542,202.231 82.276,213.102 98.616,207.155 C114.957,201.208 120.787,182.123 115.195,166.753 L91.831,102.559 L122.371,91.444 L145.735,155.638 C157.49,187.929 143.069,225.782 109.803,237.889 Z M138.699,0.851 C62.553,0.851 0,62.653 0,138.803 C0,214.95 61.73,276.68 137.877,276.68 C214.027,276.68 275.76,214.951 275.76,138.802 C275.76,62.652 214.85,0.851 138.699,0.851 L138.699,0.851 Z" id="Fill-5" fill="#FFFFFE" mask="url(#mask-2)"></path>
                </g>
            </g>
        </g>
    </g>
</svg>